# xmcd
#
# Track frame offsets:
# 150
# 17843
# 32469
# 47411
# 65949
# 81336
# 93185
# 104652
# 120994
# 138908
# 153352
# 169741
# 184889
# 196689
#
# Disc length: 2820 seconds
#
#
# Revision: 0
# Processed by: cddbd v1.5.2PL0 Copyright (c) Steve Scherf et al.
# Submitted via: FreeRIP 2.945 
#
DISCID=b10b020e
DTITLE=GRANDES VOCES DE ITALIA vol 4
DYEAR=1900
DGENRE=
TTITLE0=CIAO CARO COME STAI - IVA ZANICCHI
TTITLE1=LA PRIMA COSA BELLA - NICOLA DI BARI
TTITLE2=ROBERTA - PEPPINO DI CAPRI
TTITLE3=PAROLE PAROLE - LOREDANA PERASSO
TTITLE4=DIO COME TI AMO - DOMINGO MODUGNO
TTITLE5=COME SINFONIA - MINA
TTITLE6=VEDRAI VEDRAI - LUIGI TENCO
TTITLE7=IL MAESTRO DI VIOLINO - DOMENICO MODUGNO
TTITLE8=IL BALLO DEL MATTONE - RITA PAVONE
TTITLE9=AFRICA - TOTO COTUGNO
TTITLE10=CHE NE FARAI - LOREDANA PERASSO
TTITLE11=SOLE ROSSO- I NUOVI ANGELI
TTITLE12=SONO TREMENDO - ROCKY ROBERTS
TTITLE13=COME SINFONIA - PINO DONAGGIO
EXTD=
EXTT0=
EXTT1=
EXTT2=
EXTT3=
EXTT4=
EXTT5=
EXTT6=
EXTT7=
EXTT8=
EXTT9=
EXTT10=
EXTT11=
EXTT12=
EXTT13=
PLAYORDER=
